<svg width="53" height="53" viewBox="0 0 53 53" fill="none" xmlns="http://www.w3.org/2000/svg">
<path fill-rule="evenodd" clip-rule="evenodd" d="M5.28532 0C2.36632 0 0 2.36632 0 5.28532V47.7147C0 50.6337 2.36632 53 5.28532 53H47.7147C50.6337 53 53 50.6337 53 47.7147V5.28532C53 2.36632 50.6337 0 47.7147 0H5.28532ZM21.5863 3.67036H6.9278C6.06388 3.67036 5.23533 4.01355 4.62444 4.62444C4.01355 5.23533 3.67036 6.06388 3.67036 6.9278V21.5863C3.67036 22.4502 4.01355 23.2788 4.62444 23.8897C5.23533 24.5006 6.06388 24.8438 6.9278 24.8438H21.5863C22.4502 24.8438 23.2788 24.5006 23.8897 23.8897C24.5006 23.2788 24.8438 22.4502 24.8438 21.5863V6.9278C24.8438 6.06388 24.5006 5.23533 23.8897 4.62444C23.2788 4.01355 22.4502 3.67036 21.5863 3.67036ZM18.3289 17.5145C18.3289 17.7305 18.2431 17.9376 18.0903 18.0903C17.9376 18.2431 17.7305 18.3289 17.5145 18.3289H10.9996C10.7836 18.3289 10.5765 18.2431 10.4238 18.0903C10.271 17.9376 10.1852 17.7305 10.1852 17.5145V10.9996C10.1852 10.7836 10.271 10.5765 10.4238 10.4238C10.5765 10.271 10.7836 10.1852 10.9996 10.1852H17.5145C17.7305 10.1852 17.9376 10.271 18.0903 10.4238C18.2431 10.5765 18.3289 10.7836 18.3289 10.9996V17.5145ZM31.3586 3.67036H46.0171C46.8811 3.67036 47.7096 4.01355 48.3205 4.62444C48.9314 5.23533 49.2746 6.06388 49.2746 6.9278V21.5863C49.2746 22.4502 48.9314 23.2788 48.3205 23.8897C47.7096 24.5006 46.8811 24.8438 46.0171 24.8438H31.3586C30.4947 24.8438 29.6662 24.5006 29.0553 23.8897C28.4444 23.2788 28.1012 22.4502 28.1012 21.5863V6.9278C28.1012 6.06388 28.4444 5.23533 29.0553 4.62444C29.6662 4.01355 30.4947 3.67036 31.3586 3.67036ZM42.5212 18.0903C42.6739 17.9376 42.7597 17.7305 42.7597 17.5145V10.9996C42.7597 10.7836 42.6739 10.5765 42.5212 10.4238C42.3685 10.271 42.1613 10.1852 41.9453 10.1852H35.4304C35.2145 10.1852 35.0073 10.271 34.8546 10.4238C34.7019 10.5765 34.6161 10.7836 34.6161 10.9996V17.5145C34.6161 17.7305 34.7019 17.9376 34.8546 18.0903C35.0073 18.2431 35.2145 18.3289 35.4304 18.3289H41.9453C42.1613 18.3289 42.3685 18.2431 42.5212 18.0903ZM28.1012 28.9156C28.1012 28.4658 28.4658 28.1012 28.9156 28.1012H33.8017C34.2515 28.1012 34.6161 28.4658 34.6161 28.9156V33.8017C34.6161 34.2515 34.2515 34.6161 33.8017 34.6161H28.9156C28.4658 34.6161 28.1012 34.2515 28.1012 33.8017V28.9156ZM35.4304 34.6161H41.9453C42.3951 34.6161 42.7597 34.9807 42.7597 35.4304V41.9453C42.7597 42.3951 42.3951 42.7597 41.9453 42.7597H35.4304C34.9807 42.7597 34.6161 42.3951 34.6161 41.9453V35.4304C34.6161 34.9807 34.9807 34.6161 35.4304 34.6161ZM49.2746 43.5741C49.2746 43.1243 48.91 42.7597 48.4602 42.7597H43.5741C43.1243 42.7597 42.7597 43.1243 42.7597 43.5741V48.4602C42.7597 48.91 43.1243 49.2746 43.5741 49.2746H48.4602C48.91 49.2746 49.2746 48.91 49.2746 48.4602V43.5741ZM45.2028 28.1012H48.4602C48.91 28.1012 49.2746 28.4658 49.2746 28.9156V32.173C49.2746 32.6228 48.91 32.9874 48.4602 32.9874H45.2028C44.753 32.9874 44.3884 32.6228 44.3884 32.173V28.9156C44.3884 28.4658 44.753 28.1012 45.2028 28.1012ZM32.173 44.3884H28.9156C28.4658 44.3884 28.1012 44.753 28.1012 45.2028V48.4602C28.1012 48.91 28.4658 49.2746 28.9156 49.2746H32.173C32.6228 49.2746 32.9874 48.91 32.9874 48.4602V45.2028C32.9874 44.753 32.6228 44.3884 32.173 44.3884ZM6.9278 28.1012H21.5863C22.4502 28.1012 23.2788 28.4444 23.8897 29.0553C24.5006 29.6662 24.8438 30.4947 24.8438 31.3586V46.0171C24.8438 46.8811 24.5006 47.7096 23.8897 48.3205C23.2788 48.9314 22.4502 49.2746 21.5863 49.2746H6.9278C6.06388 49.2746 5.23533 48.9314 4.62444 48.3205C4.01355 47.7096 3.67036 46.8811 3.67036 46.0171V31.3586C3.67036 30.4947 4.01355 29.6662 4.62444 29.0553C5.23533 28.4444 6.06388 28.1012 6.9278 28.1012ZM18.0903 42.5212C18.2431 42.3685 18.3289 42.1613 18.3289 41.9453V35.4304C18.3289 35.2145 18.2431 35.0073 18.0903 34.8546C17.9376 34.7019 17.7305 34.6161 17.5145 34.6161H10.9996C10.7836 34.6161 10.5765 34.7019 10.4238 34.8546C10.271 35.0073 10.1852 35.2145 10.1852 35.4304V41.9453C10.1852 42.1613 10.271 42.3685 10.4238 42.5212C10.5765 42.6739 10.7836 42.7597 10.9996 42.7597H17.5145C17.7305 42.7597 17.9376 42.6739 18.0903 42.5212Z" fill="#CF88FF"/>
</svg>
