<svg width="235" height="53" viewBox="0 0 235 53" fill="none" xmlns="http://www.w3.org/2000/svg">
<path fill-rule="evenodd" clip-rule="evenodd" d="M5.28532 0C2.36632 0 0 2.36632 0 5.28532V47.7147C0 50.6337 2.36632 53 5.28532 53H47.7147C50.6337 53 53 50.6337 53 47.7147V5.28532C53 2.36632 50.6337 0 47.7147 0H5.28532ZM21.5863 3.67036H6.9278C6.06388 3.67036 5.23533 4.01355 4.62444 4.62444C4.01355 5.23533 3.67036 6.06388 3.67036 6.9278V21.5863C3.67036 22.4502 4.01355 23.2788 4.62444 23.8897C5.23533 24.5006 6.06388 24.8438 6.9278 24.8438H21.5863C22.4502 24.8438 23.2788 24.5006 23.8897 23.8897C24.5006 23.2788 24.8438 22.4502 24.8438 21.5863V6.9278C24.8438 6.06388 24.5006 5.23533 23.8897 4.62444C23.2788 4.01355 22.4502 3.67036 21.5863 3.67036ZM18.3289 17.5145C18.3289 17.7305 18.2431 17.9376 18.0903 18.0903C17.9376 18.2431 17.7305 18.3289 17.5145 18.3289H10.9996C10.7836 18.3289 10.5765 18.2431 10.4238 18.0903C10.271 17.9376 10.1852 17.7305 10.1852 17.5145V10.9996C10.1852 10.7836 10.271 10.5765 10.4238 10.4238C10.5765 10.271 10.7836 10.1852 10.9996 10.1852H17.5145C17.7305 10.1852 17.9376 10.271 18.0903 10.4238C18.2431 10.5765 18.3289 10.7836 18.3289 10.9996V17.5145ZM31.3586 3.67036H46.0171C46.8811 3.67036 47.7096 4.01355 48.3205 4.62444C48.9314 5.23533 49.2746 6.06388 49.2746 6.9278V21.5863C49.2746 22.4502 48.9314 23.2788 48.3205 23.8897C47.7096 24.5006 46.8811 24.8438 46.0171 24.8438H31.3586C30.4947 24.8438 29.6662 24.5006 29.0553 23.8897C28.4444 23.2788 28.1012 22.4502 28.1012 21.5863V6.9278C28.1012 6.06388 28.4444 5.23533 29.0553 4.62444C29.6662 4.01355 30.4947 3.67036 31.3586 3.67036ZM42.5212 18.0903C42.6739 17.9376 42.7597 17.7305 42.7597 17.5145V10.9996C42.7597 10.7836 42.6739 10.5765 42.5212 10.4238C42.3685 10.271 42.1613 10.1852 41.9453 10.1852H35.4304C35.2145 10.1852 35.0073 10.271 34.8546 10.4238C34.7019 10.5765 34.6161 10.7836 34.6161 10.9996V17.5145C34.6161 17.7305 34.7019 17.9376 34.8546 18.0903C35.0073 18.2431 35.2145 18.3289 35.4304 18.3289H41.9453C42.1613 18.3289 42.3685 18.2431 42.5212 18.0903ZM28.1012 28.9156C28.1012 28.4658 28.4658 28.1012 28.9156 28.1012H33.8017C34.2515 28.1012 34.6161 28.4658 34.6161 28.9156V33.8017C34.6161 34.2515 34.2515 34.6161 33.8017 34.6161H28.9156C28.4658 34.6161 28.1012 34.2515 28.1012 33.8017V28.9156ZM35.4304 34.6161H41.9453C42.3951 34.6161 42.7597 34.9807 42.7597 35.4304V41.9453C42.7597 42.3951 42.3951 42.7597 41.9453 42.7597H35.4304C34.9807 42.7597 34.6161 42.3951 34.6161 41.9453V35.4304C34.6161 34.9807 34.9807 34.6161 35.4304 34.6161ZM49.2746 43.5741C49.2746 43.1243 48.91 42.7597 48.4602 42.7597H43.5741C43.1243 42.7597 42.7597 43.1243 42.7597 43.5741V48.4602C42.7597 48.91 43.1243 49.2746 43.5741 49.2746H48.4602C48.91 49.2746 49.2746 48.91 49.2746 48.4602V43.5741ZM45.2028 28.1012H48.4602C48.91 28.1012 49.2746 28.4658 49.2746 28.9156V32.173C49.2746 32.6228 48.91 32.9874 48.4602 32.9874H45.2028C44.753 32.9874 44.3884 32.6228 44.3884 32.173V28.9156C44.3884 28.4658 44.753 28.1012 45.2028 28.1012ZM32.173 44.3884H28.9156C28.4658 44.3884 28.1012 44.753 28.1012 45.2028V48.4602C28.1012 48.91 28.4658 49.2746 28.9156 49.2746H32.173C32.6228 49.2746 32.9874 48.91 32.9874 48.4602V45.2028C32.9874 44.753 32.6228 44.3884 32.173 44.3884ZM6.9278 28.1012H21.5863C22.4502 28.1012 23.2788 28.4444 23.8897 29.0553C24.5006 29.6662 24.8438 30.4947 24.8438 31.3586V46.0171C24.8438 46.8811 24.5006 47.7096 23.8897 48.3205C23.2788 48.9314 22.4502 49.2746 21.5863 49.2746H6.9278C6.06388 49.2746 5.23533 48.9314 4.62444 48.3205C4.01355 47.7096 3.67036 46.8811 3.67036 46.0171V31.3586C3.67036 30.4947 4.01355 29.6662 4.62444 29.0553C5.23533 28.4444 6.06388 28.1012 6.9278 28.1012ZM18.0903 42.5212C18.2431 42.3685 18.3289 42.1613 18.3289 41.9453V35.4304C18.3289 35.2145 18.2431 35.0073 18.0903 34.8546C17.9376 34.7019 17.7305 34.6161 17.5145 34.6161H10.9996C10.7836 34.6161 10.5765 34.7019 10.4238 34.8546C10.271 35.0073 10.1852 35.2145 10.1852 35.4304V41.9453C10.1852 42.1613 10.271 42.3685 10.4238 42.5212C10.5765 42.6739 10.7836 42.7597 10.9996 42.7597H17.5145C17.7305 42.7597 17.9376 42.6739 18.0903 42.5212Z" fill="#CF88FF"/>
<path d="M78.8864 39.3018C77.4777 39.3018 76.2019 38.9396 75.0589 38.2152C73.924 37.4827 73.0225 36.4081 72.3544 34.9915C71.6944 33.5668 71.3643 31.8201 71.3643 29.7514C71.3643 27.6264 71.7064 25.8596 72.3906 24.451C73.0748 23.0343 73.9844 21.9759 75.1193 21.2756C76.2623 20.5672 77.514 20.2131 78.8743 20.2131C79.9126 20.2131 80.7779 20.3902 81.4702 20.7443C82.1705 21.0904 82.7339 21.5251 83.1605 22.0483C83.5952 22.5634 83.9252 23.0705 84.1506 23.5696H84.3075V14.2727H89.4389V39H84.3679V36.0298H84.1506C83.9091 36.545 83.567 37.0561 83.1243 37.5632C82.6896 38.0623 82.1222 38.4768 81.4219 38.8068C80.7296 39.1368 79.8845 39.3018 78.8864 39.3018ZM80.5163 35.2088C81.3454 35.2088 82.0457 34.9834 82.6172 34.5327C83.1967 34.0739 83.6394 33.4339 83.9453 32.6129C84.2592 31.7919 84.4162 30.83 84.4162 29.7273C84.4162 28.6245 84.2633 27.6667 83.9574 26.8537C83.6515 26.0407 83.2088 25.4129 82.6293 24.9702C82.0497 24.5275 81.3454 24.3061 80.5163 24.3061C79.6712 24.3061 78.9588 24.5355 78.3793 24.9943C77.7997 25.4531 77.361 26.089 77.0632 26.902C76.7654 27.715 76.6165 28.6567 76.6165 29.7273C76.6165 30.8059 76.7654 31.7597 77.0632 32.5888C77.3691 33.4098 77.8078 34.0537 78.3793 34.5206C78.9588 34.9794 79.6712 35.2088 80.5163 35.2088ZM105.222 26.8054V30.8864H93.9455V26.8054H105.222ZM109.702 14.2727H116.149L122.959 30.8864H123.249L130.058 14.2727H136.506V39H131.435V22.9055H131.23L124.83 38.8793H121.377L114.978 22.8452H114.773V39H109.702V14.2727ZM149.168 39.3622C147.261 39.3622 145.619 38.9759 144.242 38.2031C142.874 37.4223 141.819 36.3196 141.079 34.8949C140.338 33.4621 139.968 31.7678 139.968 29.8118C139.968 27.9041 140.338 26.2299 141.079 24.7891C141.819 23.3482 142.862 22.2254 144.206 21.4205C145.558 20.6155 147.144 20.2131 148.963 20.2131C150.187 20.2131 151.326 20.4103 152.38 20.8047C153.442 21.1911 154.368 21.7746 155.157 22.5554C155.954 23.3362 156.574 24.3182 157.016 25.5014C157.459 26.6766 157.68 28.053 157.68 29.6307V31.0433H142.021V27.8558H152.839C152.839 27.1153 152.678 26.4593 152.356 25.8878C152.034 25.3163 151.587 24.8696 151.016 24.5476C150.452 24.2176 149.796 24.0526 149.048 24.0526C148.267 24.0526 147.575 24.2337 146.971 24.5959C146.375 24.95 145.908 25.429 145.57 26.0327C145.232 26.6283 145.059 27.2924 145.051 28.0249V31.0554C145.051 31.973 145.22 32.7659 145.558 33.4339C145.904 34.102 146.391 34.6172 147.019 34.9794C147.647 35.3416 148.392 35.5227 149.253 35.5227C149.824 35.5227 150.348 35.4422 150.822 35.2812C151.297 35.1203 151.704 34.8788 152.042 34.5568C152.38 34.2348 152.638 33.8404 152.815 33.3736L157.572 33.6875C157.33 34.8305 156.835 35.8286 156.087 36.6818C155.346 37.527 154.388 38.187 153.213 38.6619C152.046 39.1288 150.698 39.3622 149.168 39.3622ZM170.901 20.4545V24.3182H159.733V20.4545H170.901ZM162.268 16.0114H167.412V33.3011C167.412 33.776 167.484 34.1463 167.629 34.4119C167.774 34.6695 167.975 34.8506 168.233 34.9553C168.499 35.0599 168.804 35.1122 169.151 35.1122C169.392 35.1122 169.634 35.0921 169.875 35.0518C170.116 35.0036 170.302 34.9673 170.43 34.9432L171.239 38.7706C170.982 38.8511 170.62 38.9437 170.153 39.0483C169.686 39.161 169.118 39.2294 168.45 39.2536C167.211 39.3018 166.124 39.1368 165.19 38.7585C164.265 38.3802 163.544 37.7926 163.029 36.9957C162.514 36.1989 162.26 35.1927 162.268 33.9773V16.0114ZM182.504 39.3622C180.597 39.3622 178.955 38.9759 177.578 38.2031C176.21 37.4223 175.155 36.3196 174.415 34.8949C173.674 33.4621 173.304 31.7678 173.304 29.8118C173.304 27.9041 173.674 26.2299 174.415 24.7891C175.155 23.3482 176.198 22.2254 177.542 21.4205C178.894 20.6155 180.48 20.2131 182.299 20.2131C183.522 20.2131 184.661 20.4103 185.716 20.8047C186.778 21.1911 187.704 21.7746 188.493 22.5554C189.29 23.3362 189.91 24.3182 190.352 25.5014C190.795 26.6766 191.016 28.053 191.016 29.6307V31.0433H175.357V27.8558H186.175C186.175 27.1153 186.014 26.4593 185.692 25.8878C185.37 25.3163 184.923 24.8696 184.352 24.5476C183.788 24.2176 183.132 24.0526 182.384 24.0526C181.603 24.0526 180.911 24.2337 180.307 24.5959C179.711 24.95 179.244 25.429 178.906 26.0327C178.568 26.6283 178.395 27.2924 178.387 28.0249V31.0554C178.387 31.973 178.556 32.7659 178.894 33.4339C179.24 34.102 179.727 34.6172 180.355 34.9794C180.983 35.3416 181.728 35.5227 182.589 35.5227C183.16 35.5227 183.683 35.4422 184.158 35.2812C184.633 35.1203 185.04 34.8788 185.378 34.5568C185.716 34.2348 185.973 33.8404 186.151 33.3736L190.908 33.6875C190.666 34.8305 190.171 35.8286 189.423 36.6818C188.682 37.527 187.724 38.187 186.549 38.6619C185.382 39.1288 184.034 39.3622 182.504 39.3622ZM194.373 39V20.4545H199.359V23.6903H199.553C199.891 22.5393 200.458 21.67 201.255 21.0824C202.052 20.4867 202.969 20.1889 204.008 20.1889C204.265 20.1889 204.543 20.205 204.841 20.2372C205.139 20.2694 205.4 20.3137 205.626 20.37V24.9339C205.384 24.8615 205.05 24.7971 204.624 24.7408C204.197 24.6844 203.807 24.6562 203.452 24.6562C202.696 24.6562 202.02 24.8213 201.424 25.1513C200.836 25.4732 200.37 25.924 200.023 26.5036C199.685 27.0831 199.516 27.7512 199.516 28.5078V39H194.373ZM213.042 39.3501C211.859 39.3501 210.804 39.1449 209.879 38.7344C208.953 38.3158 208.221 37.7 207.681 36.8871C207.15 36.0661 206.884 35.0438 206.884 33.8203C206.884 32.79 207.074 31.9247 207.452 31.2244C207.83 30.5241 208.345 29.9607 208.997 29.5341C209.649 29.1075 210.39 28.7855 211.219 28.5682C212.056 28.3509 212.933 28.1979 213.851 28.1094C214.93 27.9967 215.799 27.892 216.459 27.7955C217.119 27.6908 217.598 27.5379 217.896 27.3366C218.194 27.1354 218.343 26.8376 218.343 26.4432V26.3707C218.343 25.6061 218.101 25.0144 217.618 24.5959C217.143 24.1773 216.467 23.968 215.59 23.968C214.664 23.968 213.927 24.1733 213.38 24.5838C212.833 24.9863 212.471 25.4934 212.294 26.1051L207.536 25.7188C207.778 24.5919 208.253 23.6179 208.961 22.7969C209.669 21.9678 210.583 21.3319 211.702 20.8892C212.829 20.4384 214.133 20.2131 215.614 20.2131C216.644 20.2131 217.63 20.3338 218.572 20.5753C219.522 20.8168 220.363 21.1911 221.095 21.6982C221.836 22.2053 222.419 22.8572 222.846 23.6541C223.273 24.4429 223.486 25.3887 223.486 26.4915V39H218.608V36.4283H218.463C218.165 37.0078 217.767 37.5189 217.268 37.9616C216.769 38.3963 216.169 38.7384 215.469 38.9879C214.769 39.2294 213.96 39.3501 213.042 39.3501ZM214.515 35.8004C215.272 35.8004 215.94 35.6515 216.519 35.3537C217.099 35.0478 217.554 34.6373 217.884 34.1222C218.214 33.607 218.379 33.0234 218.379 32.3714V30.4034C218.218 30.508 217.996 30.6046 217.715 30.6932C217.441 30.7737 217.131 30.8501 216.785 30.9226C216.439 30.987 216.093 31.0473 215.747 31.1037C215.401 31.152 215.087 31.1963 214.805 31.2365C214.201 31.325 213.674 31.4659 213.223 31.6591C212.772 31.8523 212.422 32.1139 212.173 32.4439C211.923 32.7659 211.798 33.1683 211.798 33.6513C211.798 34.3516 212.052 34.8868 212.559 35.2571C213.074 35.6193 213.726 35.8004 214.515 35.8004ZM227.476 39V20.4545H232.62V39H227.476ZM230.06 18.0639C229.296 18.0639 228.64 17.8104 228.092 17.3033C227.553 16.7881 227.283 16.1723 227.283 15.456C227.283 14.7476 227.553 14.1399 228.092 13.6328C228.64 13.1177 229.296 12.8601 230.06 12.8601C230.825 12.8601 231.477 13.1177 232.016 13.6328C232.564 14.1399 232.837 14.7476 232.837 15.456C232.837 16.1723 232.564 16.7881 232.016 17.3033C231.477 17.8104 230.825 18.0639 230.06 18.0639Z" fill="white"/>
</svg>
